HIERARCHY
ROOT SpineBase
{
  OFFSET 0.000000 0.000000 0.000000
  CHANNELS 6 Xposition Yposition Zposition Zrotation Xrotation Yrotation
  JOINT SpineMid
  {
    OFFSET -0.000000 24.905300 0.000000
    CHANNELS 3 Zrotation Xrotation Yrotation
    JOINT SpineShoulder
    {
      OFFSET -0.119784 18.821305 -0.529790
      CHANNELS 3 Zrotation Xrotation Yrotation
      JOINT Neck
      {
        OFFSET 0.004923 6.408572 -0.394545
        CHANNELS 3 Zrotation Xrotation Yrotation
        JOINT Head
        {
          OFFSET 5.090495 12.714613 0.243571
          CHANNELS 3 Zrotation Xrotation Yrotation
          End Site
          {
            OFFSET 0 0 0
          }
        }
      }
      JOINT ShoulderLeft
      {
        OFFSET -10.481767 1.021721 -6.479794
        CHANNELS 3 Zrotation Xrotation Yrotation
        JOINT ElbowLeft
        {
          OFFSET -4.129989 -15.007535 -9.381914
          CHANNELS 3 Zrotation Xrotation Yrotation
          JOINT WristLeft
          {
            OFFSET -1.697242 -21.682392 -1.291204
            CHANNELS 3 Zrotation Xrotation Yrotation
            JOINT HandLeft
            {
              OFFSET 1.159846 -5.065668 -0.362729
              CHANNELS 3 Zrotation Xrotation Yrotation
              JOINT HandTipLeft
              {
                OFFSET -1.959897 -7.575978 -3.217383
                CHANNELS 3 Zrotation Xrotation Yrotation
                End Site
                {
                  OFFSET 0 0 0
                }
              }
              JOINT ThumbLeft
              {
                OFFSET 2.359216 0.777244 -1.457761
                CHANNELS 3 Zrotation Xrotation Yrotation
                End Site
                {
                  OFFSET 0 0 0
                }
              }
            }
          }
        }
      }
      JOINT ShoulderRight
      {
        OFFSET 13.471980 -7.886919 9.289026
        CHANNELS 3 Zrotation Xrotation Yrotation
        JOINT ElbowRight
        {
          OFFSET -1.220306 -24.096946 -0.015780
          CHANNELS 3 Zrotation Xrotation Yrotation
          JOINT WristRight
          {
            OFFSET -2.112042 -18.816882 -4.861384
            CHANNELS 3 Zrotation Xrotation Yrotation
            JOINT HandRight
            {
              OFFSET -2.517638 -5.616384 -2.003716
              CHANNELS 3 Zrotation Xrotation Yrotation
              JOINT HandTipRight
              {
                OFFSET -0.269945 -6.713044 -3.121774
                CHANNELS 3 Zrotation Xrotation Yrotation
                End Site
                {
                  OFFSET 0 0 0
                }
              }
              JOINT ThumbRight
              {
                OFFSET 1.538046 -3.891704 -2.306379
                CHANNELS 3 Zrotation Xrotation Yrotation
                End Site
                {
                  OFFSET 0 0 0
                }
              }
            }
          }
        }
      }
    }
  }
  JOINT HipLeft
  {
    OFFSET -5.473802 2.922627 -6.665992
    CHANNELS 3 Zrotation Xrotation Yrotation
    JOINT KneeLeft
    {
      OFFSET -7.312783 -27.793120 -10.262455
      CHANNELS 3 Zrotation Xrotation Yrotation
      JOINT AnkleLeft
      {
        OFFSET -16.588486 -40.522919 -0.611273
        CHANNELS 3 Zrotation Xrotation Yrotation
        JOINT FootLeft
        {
          OFFSET 3.416104 -8.188341 7.274649
          CHANNELS 3 Zrotation Xrotation Yrotation
          End Site
          {
            OFFSET 0 0 0
          }
        }
      }
    }
  }
  JOINT HipRight
  {
    OFFSET 5.323904 -0.735468 1.023194
    CHANNELS 3 Zrotation Xrotation Yrotation
    JOINT KneeRight
    {
      OFFSET -10.005875 -37.115976 -7.667036
      CHANNELS 3 Zrotation Xrotation Yrotation
      JOINT AnkleRight
      {
        OFFSET -16.580845 -37.157950 4.181214
        CHANNELS 3 Zrotation Xrotation Yrotation
        JOINT FootRight
        {
          OFFSET -7.554805 0.184842 -10.244626
          CHANNELS 3 Zrotation Xrotation Yrotation
          End Site
          {
            OFFSET 0 0 0
          }
        }
      }
    }
  }
}
MOTION
Frames: 14
Frame Time: 0.033333
5.696713 78.757824 317.948195 0.000000 0.000000 -35.455162 -0.000000 0.000000 35.455162 -0.000000 0.000000 0.000000 -0.000000 0.000000 0.000000 0.000000 0.000000 0.000000 -0.000000 0.000000 0.000000 -0.000000 0.000000 0.000000 -0.000000 0.000000 0.000000 -0.000000 0.000000 0.000000 0.000000 0.000000 0.000000 0.000000 0.000000 0.000000 -0.000000 0.000000 0.000000 -0.000000 0.000000 0.000000 -0.000000 0.000000 0.000000 -0.000000 0.000000 0.000000 0.000000 0.000000 0.000000 0.000000 0.000000 0.000000 -0.000000 0.000000 35.455162 -0.000000 0.000000 0.000000 -0.000000 0.000000 0.000000 0.000000 0.000000 0.000000 -0.000000 0.000000 35.455162 -0.000000 0.000000 0.000000 -0.000000 0.000000 0.000000 0.000000 0.000000 0.000000
5.676003 78.814110 317.889329 -0.041346 0.076430 -35.216870 0.077854 -0.038598 35.216924 -0.000000 0.000000 0.000000 -0.000000 0.000000 0.000000 0.000000 0.000000 0.000000 1.198216 -2.728344 0.030964 -0.531841 3.237436 -0.088049 -0.144519 1.504197 0.494623 0.404308 -2.122365 -0.771792 0.000000 0.000000 0.000000 0.000000 0.000000 0.000000 -0.000000 0.000000 0.000000 -0.974834 0.519226 0.197574 2.704701 1.985516 -1.950752 -3.211431 -4.500749 2.440597 0.000000 0.000000 0.000000 0.000000 0.000000 0.000000 1.030151 -0.193368 35.142011 -0.689678 0.674674 0.080901 0.018877 1.325231 0.575319 0.000000 0.000000 0.000000 0.077854 -0.038598 35.216924 -0.000000 0.000000 0.000000 3.697366 -4.617642 3.580211 0.000000 0.000000 0.000000
5.667721 78.863270 317.847694 -0.068235 0.126596 -34.974392 0.128479 -0.064620 34.974540 -0.000000 0.000000 0.000000 -0.000000 0.000000 0.000000 0.000000 0.000000 0.000000 2.272413 -5.020887 0.063559 -1.100283 6.087946 -0.131221 -0.148960 2.824901 0.940958 0.744150 -4.095023 -1.453833 0.000000 0.000000 0.000000 0.000000 0.000000 0.000000 -0.000000 0.000000 0.000000 -1.555443 0.941226 0.307884 4.375072 3.302233 -3.246545 -5.272561 -7.843445 3.987516 0.000000 0.000000 0.000000 0.000000 0.000000 0.000000 1.929245 -0.355126 34.830966 -1.312510 1.266768 0.164681 -0.038049 2.648105 1.094635 0.000000 0.000000 0.000000 0.128479 -0.064620 34.974540 -0.000000 0.000000 0.000000 7.311925 -8.717679 6.293705 0.000000 0.000000 0.000000
5.671868 78.905302 317.823290 -0.080659 0.150480 -34.728509 0.152017 -0.077723 34.728718 -0.000000 0.000000 0.000000 -0.000000 0.000000 0.000000 0.000000 0.000000 0.000000 3.238099 -6.919410 0.081191 -1.749923 8.585362 -0.111006 -0.013682 3.832279 1.315844 0.998484 -5.765258 -2.014294 0.000000 0.000000 0.000000 0.000000 0.000000 0.000000 -0.000000 0.000000 0.000000 -1.808982 1.296670 0.340718 5.096712 4.067095 -3.948474 -6.271624 -9.907751 4.821530 0.000000 0.000000 0.000000 0.000000 0.000000 0.000000 2.689879 -0.481878 34.521651 -1.862735 1.770657 0.248250 -0.173353 3.991004 1.567119 0.000000 0.000000 0.000000 0.152017 -0.077723 34.728718 -0.000000 0.000000 0.000000 10.512087 -12.240667 7.759886 0.000000 0.000000 0.000000
5.688444 78.940207 317.816117 -0.078607 0.148066 -34.479815 0.148620 -0.077553 34.480017 -0.000000 0.000000 0.000000 -0.000000 0.000000 0.000000 0.000000 0.000000 0.000000 4.108491 -8.459362 0.070637 -2.519251 10.753951 -0.007936 0.254987 4.398639 1.598832 1.142266 -6.978946 -2.426326 0.000000 0.000000 0.000000 0.000000 0.000000 0.000000 -0.000000 0.000000 0.000000 -1.767668 1.605795 0.299638 4.899427 4.333570 -4.085741 -6.229100 -10.625643 5.039044 0.000000 0.000000 0.000000 0.000000 0.000000 0.000000 3.305923 -0.570383 34.213644 -2.335318 2.181740 0.328705 -0.393227 5.379087 2.001062 0.000000 0.000000 0.000000 0.148620 -0.077553 34.480017 -0.000000 0.000000 0.000000 12.984956 -15.203584 7.609985 0.000000 0.000000 0.000000
5.717448 78.967986 317.826174 -0.062068 0.119332 -34.228706 0.118442 -0.063750 34.228837 -0.000000 0.000000 0.000000 -0.000000 0.000000 0.000000 0.000000 0.000000 0.000000 4.894944 -9.668579 0.020730 -3.438249 12.607088 0.195699 0.646136 4.423227 1.775374 1.147726 -7.609047 -2.669712 0.000000 0.000000 0.000000 0.000000 0.000000 0.000000 -0.654498 -0.747795 0.034018 -0.781250 2.630664 0.158685 3.753900 4.093107 -3.655025 -5.122739 -9.981694 4.658452 0.000000 0.000000 0.000000 0.000000 0.000000 0.000000 3.772599 -0.617616 33.906537 -2.726057 2.496471 0.403445 -0.708259 6.841999 2.404487 0.000000 0.000000 0.000000 0.118442 -0.063750 34.228837 0.842571 0.081369 0.058100 13.580362 -17.706155 5.438521 0.000000 0.000000 0.000000
5.766900 78.997968 317.852694 -0.001819 0.070387 -33.871345 0.040739 -0.057428 33.871367 -0.000000 0.000000 0.000000 -0.000000 0.000000 0.000000 0.000000 0.000000 0.000000 5.693520 -11.021032 0.032207 -4.397391 15.207782 0.343123 2.534973 0.941756 1.358763 0.529227 -5.892358 -2.398589 0.000000 0.000000 0.000000 0.000000 0.000000 0.000000 -1.007707 -0.829676 0.035365 0.251949 3.196778 -0.092988 1.747334 1.192674 -1.839789 -1.863225 -3.832544 2.315638 0.000000 0.000000 0.000000 0.000000 0.000000 0.000000 4.145247 -0.697019 33.507146 -3.822230 3.322761 0.300195 -1.543604 9.824583 2.973279 0.000000 0.000000 0.000000 0.040739 -0.057428 33.871367 1.068358 0.101028 0.074515 11.732946 -19.661629 -6.064519 0.000000 0.000000 0.000000
5.834527 79.011174 317.913328 0.084580 -0.033880 -33.572591 -0.089207 -0.018544 33.572602 -0.000000 0.000000 0.000000 -0.000000 0.000000 0.000000 0.000000 0.000000 0.000000 6.520336 -11.722480 -0.188269 -6.656872 16.996512 1.100541 2.717763 -0.516313 1.461580 0.314602 -5.835209 -1.863862 0.000000 0.000000 0.000000 0.000000 0.000000 0.000000 -1.402869 -0.713656 0.028305 2.475771 1.476201 -0.428660 -3.426274 -0.119698 0.872881 1.631596 1.854641 -0.274596 0.000000 0.000000 0.000000 0.000000 0.000000 0.000000 4.227771 -0.658456 33.161821 -4.217989 3.546844 0.316660 -2.028707 12.410305 3.858880 0.000000 0.000000 0.000000 -0.089207 -0.018544 33.572602 1.206733 0.163946 0.061207 9.988094 -20.369323 -14.012018 0.000000 0.000000 0.000000
5.850227 79.007764 317.931592 0.090891 -0.043157 -33.497286 -0.099613 -0.014173 33.497308 -0.000000 0.000000 0.000000 -0.000000 0.000000 0.000000 0.000000 0.000000 0.000000 7.113124 -11.732582 -0.523166 -8.298835 16.035170 1.917804 2.238355 1.510600 1.630493 0.119694 -3.230218 -2.627972 0.000000 0.000000 0.000000 0.000000 0.000000 0.000000 -1.623938 -0.769485 0.029106 3.733816 1.796233 -0.758173 -7.679292 -3.016185 3.251712 5.732054 2.563240 -2.928493 0.000000 0.000000 0.000000 0.000000 0.000000 0.000000 4.480084 -0.679437 33.053118 -4.707992 3.897542 0.307723 -1.580787 12.377387 4.182955 0.000000 0.000000 0.000000 -0.099613 -0.014173 33.497308 1.276432 0.134011 0.082767 8.528343 -19.649033 -18.237888 0.000000 0.000000 0.000000
6.241526 78.877909 318.680287 0.631753 -0.848037 -33.020136 -0.332030 -0.466510 33.024614 -0.062677 0.153052 0.007409 -0.036329 0.905173 -0.002646 0.000000 0.000000 0.000000 7.389865 -9.992068 -1.147459 -9.608498 14.714339 2.638065 0.094506 1.683266 1.692716 1.443011 -2.868054 -2.134690 0.000000 0.000000 0.000000 0.000000 0.000000 0.000000 -1.887983 -0.097953 0.062364 4.851178 2.826530 -1.146239 -9.806458 -3.116263 3.522543 7.348615 2.044148 -3.177811 0.000000 0.000000 0.000000 0.000000 0.000000 0.000000 2.098966 0.661634 32.354779 -4.125987 2.186269 0.417211 0.271699 9.158871 3.938104 0.000000 0.000000 0.000000 -1.968559 0.283723 33.087111 2.050116 -0.350388 0.041296 9.409015 -20.575346 -17.018153 0.000000 0.000000 0.000000
6.313718 78.915150 318.608547 0.580335 -0.881523 -32.884487 -0.557872 -0.336372 32.884747 0.115235 -0.232603 0.010267 -0.044304 1.093675 -0.003147 0.000000 0.000000 0.000000 7.573649 -8.850567 -1.637303 -11.901204 14.571995 3.454282 4.754229 -1.324291 1.193994 -1.094103 -1.433336 -1.475650 0.000000 0.000000 0.000000 0.000000 0.000000 0.000000 -2.058682 -0.445242 0.087437 5.149183 8.053800 -1.885383 -11.981554 -5.404339 2.909093 12.326557 3.854386 -4.111393 0.000000 0.000000 0.000000 0.000000 0.000000 0.000000 1.996840 0.746501 32.224468 -4.070146 1.983210 0.447384 1.598598 6.709279 3.762421 0.000000 0.000000 0.000000 -2.424298 0.780852 32.827191 2.439265 -1.294825 0.372189 10.136329 -19.992831 -12.410580 0.000000 0.000000 0.000000
6.147118 79.107072 317.904897 0.086150 -0.309850 -32.863532 -0.240502 0.213514 32.864213 -0.160895 -0.962223 -0.010512 0.249757 0.080467 0.358505 0.000000 0.000000 0.000000 8.735923 -9.890284 -1.850959 -12.735975 17.745780 3.853584 8.573577 -6.273736 1.130555 -1.857990 -0.076012 -1.676972 0.000000 0.000000 0.000000 0.000000 0.000000 0.000000 -1.659650 -1.222267 0.115415 5.184286 14.379364 -2.798918 -19.812170 2.430707 -0.321524 19.520480 -3.205698 1.552146 0.000000 0.000000 0.000000 0.000000 0.000000 0.000000 3.646293 -0.217582 32.388111 -4.225980 3.163651 0.318469 -0.425856 7.916267 2.807691 0.000000 0.000000 0.000000 -1.354397 0.364553 32.849072 2.624681 -1.158226 0.448351 12.050148 -19.303292 -2.366111 0.000000 0.000000 0.000000
5.667622 79.365766 316.823802 -0.972970 0.715173 -32.773697 -0.596517 0.452631 32.760912 1.230202 -1.418102 0.040812 -0.931099 -1.787362 0.716842 0.000000 0.000000 0.000000 8.388394 -10.323998 -1.781854 -8.128450 19.397654 2.324224 11.508689 -10.923850 1.657479 -2.794681 0.992530 -2.706714 0.000000 0.000000 0.000000 0.000000 0.000000 0.000000 -1.310274 -2.646163 0.104565 1.794166 25.437560 -2.842381 -21.265758 2.565954 -4.545859 21.342175 -7.430766 7.197507 0.000000 0.000000 0.000000 0.000000 0.000000 0.000000 6.940396 -1.557567 32.516526 -5.137538 4.969416 0.336456 -1.449169 7.433585 1.673588 0.000000 0.000000 0.000000 1.205212 -0.074561 32.780554 2.232560 -0.633116 0.550544 13.541680 -15.422291 15.644880 0.000000 0.000000 0.000000
4.942283 79.676009 315.507073 -2.482105 1.723224 -32.877287 -0.376041 0.438788 32.869848 0.664545 -2.582215 -0.088480 -0.083769 -2.505619 1.222357 0.000000 0.000000 0.000000 9.802564 -10.374694 -1.290068 -0.662169 21.542838 -0.570114 15.270172 -14.151605 3.143060 -5.781367 0.644956 -3.845698 0.000000 0.000000 0.000000 0.000000 0.000000 0.000000 1.309484 -2.529956 0.243401 -3.035707 36.876252 -1.726443 -19.164278 4.027179 -9.596824 20.688836 -14.275060 13.919913 0.000000 0.000000 0.000000 0.000000 0.000000 0.000000 10.738051 -2.461446 32.791333 -6.127992 6.367895 0.595801 -4.487023 11.544914 0.876890 0.000000 0.000000 0.000000 4.782200 -1.280276 33.293124 1.866175 1.063476 0.288539 15.754749 -14.168475 27.801511 0.000000 0.000000 0.000000
